<svg xmlns="http://www.w3.org/2000/svg" width="120" height="60" viewBox="0 0 160.004 80.005"><defs><clipPath id="a"><path d="M0 80.002h159.998V0Zm0 0"/></clipPath><clipPath id="b"><path d="M0 39.998h159.998v39.998H0Zm0 0"/></clipPath><clipPath id="c"><path d="M0 80.002h159.998V0Zm0 0"/></clipPath><clipPath id="d"><path d="m80.002 39.998 80.002 39.998V39.998H0v39.998h80.002Zm0 0"/></clipPath><clipPath id="e"><path d="M0 80.002h159.998V0Zm0 0"/></clipPath></defs><path style="fill:#fff;fill-opacity:1;stroke:none" d="M0 0h159.998v80.002H0z"/><path style="stroke:none;fill-rule:nonzero;fill:#b22234;fill-opacity:1" d="M0 0h159.998v6.15H0Zm0 12.308h159.998v6.15H0Zm0 12.308h159.998v6.15H0Zm0 12.308h159.998v6.157H0Zm0 12.308h159.998v6.15H0ZM0 61.54h159.998v6.15H0Zm0 12.308h159.998v6.157H0Zm0 0"/><path style="stroke:none;fill-rule:nonzero;fill:#3c3b6e;fill-opacity:1" d="M0 0h60.802v43.08H0Zm0 0"/><path style="stroke:none;fill-rule:nonzero;fill:#fff;fill-opacity:1" d="m5.85 4.732-2.1 1.515.803-2.459Zm0 0"/><path style="stroke:none;fill-rule:nonzero;fill:#fff;fill-opacity:1" d="M4.95 5.018 2.857 3.495h2.595Zm0 0"/><path style="stroke:none;fill-rule:nonzero;fill:#fff;fill-opacity:1" d="m4.395 4.26.802-2.468L6 4.26Zm0 0"/><path style="stroke:none;fill-rule:nonzero;fill:#fff;fill-opacity:1" d="M4.95 3.495h2.587L5.452 5.018Zm0 0"/><path style="stroke:none;fill-rule:nonzero;fill:#fff;fill-opacity:1" d="m5.85 3.788.802 2.46-2.099-1.523Zm10.08.937-2.093 1.523.802-2.46Zm0 0"/><path style="stroke:none;fill-rule:nonzero;fill:#fff;fill-opacity:1" d="m15.03 5.018-2.092-1.523h2.587Zm0 0"/><path style="stroke:none;fill-rule:nonzero;fill:#fff;fill-opacity:1" d="m14.482 4.26.802-2.468.802 2.468Zm0 0"/><path style="stroke:none;fill-rule:nonzero;fill:#fff;fill-opacity:1" d="M15.03 3.495h2.595l-2.1 1.523Zm0 0"/><path style="stroke:none;fill-rule:nonzero;fill:#fff;fill-opacity:1" d="m15.923 3.788.802 2.46-2.092-1.523Zm10.08.937L23.91 6.248l.802-2.46Zm0 0"/><path style="stroke:none;fill-rule:nonzero;fill:#fff;fill-opacity:1" d="m25.11 5.018-2.1-1.523h2.587Zm0 0"/><path style="stroke:none;fill-rule:nonzero;fill:#fff;fill-opacity:1" d="m24.563 4.26.802-2.468.802 2.468Zm0 0"/><path style="stroke:none;fill-rule:nonzero;fill:#fff;fill-opacity:1" d="M25.11 3.495h2.587l-2.093 1.523Zm0 0"/><path style="stroke:none;fill-rule:nonzero;fill:#fff;fill-opacity:1" d="m26.01 3.788.802 2.46-2.1-1.523Zm10.08.937-2.093 1.523.802-2.46Zm0 0"/><path style="stroke:none;fill-rule:nonzero;fill:#fff;fill-opacity:1" d="m35.19 5.018-2.092-1.523h2.587Zm0 0"/><path style="stroke:none;fill-rule:nonzero;fill:#fff;fill-opacity:1" d="m34.642 4.26.802-2.468.802 2.468Zm0 0"/><path style="stroke:none;fill-rule:nonzero;fill:#fff;fill-opacity:1" d="M35.19 3.495h2.595l-2.1 1.523Zm0 0"/><path style="stroke:none;fill-rule:nonzero;fill:#fff;fill-opacity:1" d="m36.082 3.788.802 2.46-2.091-1.523Zm10.081.937L44.07 6.248l.802-2.46Zm0 0"/><path style="stroke:none;fill-rule:nonzero;fill:#fff;fill-opacity:1" d="m45.27 5.018-2.1-1.523h2.587Zm0 0"/><path style="stroke:none;fill-rule:nonzero;fill:#fff;fill-opacity:1" d="m44.723 4.26.802-2.468.802 2.468Zm0 0"/><path style="stroke:none;fill-rule:nonzero;fill:#fff;fill-opacity:1" d="M45.27 3.495h2.587l-2.093 1.523Zm0 0"/><path style="stroke:none;fill-rule:nonzero;fill:#fff;fill-opacity:1" d="m46.17 3.788.802 2.46-2.1-1.523Zm10.08.937-2.093 1.523.802-2.46Zm0 0"/><path style="stroke:none;fill-rule:nonzero;fill:#fff;fill-opacity:1" d="m55.35 5.018-2.092-1.523h2.587Zm0 0"/><path style="stroke:none;fill-rule:nonzero;fill:#fff;fill-opacity:1" d="m54.803 4.26.802-2.468.802 2.468Zm0 0"/><path style="stroke:none;fill-rule:nonzero;fill:#fff;fill-opacity:1" d="M55.35 3.495h2.595l-2.1 1.523Zm0 0"/><path style="stroke:none;fill-rule:nonzero;fill:#fff;fill-opacity:1" d="m56.242 3.788.802 2.46-2.091-1.523ZM10.89 9.053l-2.093 1.523.802-2.46Zm0 0"/><path style="stroke:none;fill-rule:nonzero;fill:#fff;fill-opacity:1" d="M9.99 9.338 7.897 7.815h2.587Zm0 0"/><path style="stroke:none;fill-rule:nonzero;fill:#fff;fill-opacity:1" d="m9.435 8.58.802-2.468.802 2.468Zm0 0"/><path style="stroke:none;fill-rule:nonzero;fill:#fff;fill-opacity:1" d="M9.99 7.815h2.587l-2.093 1.523Zm0 0"/><path style="stroke:none;fill-rule:nonzero;fill:#fff;fill-opacity:1" d="m10.89 8.107.802 2.46-2.093-1.523Zm10.08.938-2.1 1.523.802-2.46Zm0 0"/><path style="stroke:none;fill-rule:nonzero;fill:#fff;fill-opacity:1" d="m20.078 9.338-2.1-1.523h2.587Zm0 0"/><path style="stroke:none;fill-rule:nonzero;fill:#fff;fill-opacity:1" d="m19.523 8.58.802-2.468.802 2.468Zm0 0"/><path style="stroke:none;fill-rule:nonzero;fill:#fff;fill-opacity:1" d="M20.078 7.815h2.587l-2.1 1.523Zm0 0"/><path style="stroke:none;fill-rule:nonzero;fill:#fff;fill-opacity:1" d="m20.97 8.107.802 2.46-2.1-1.523Zm10.08.938-2.093 1.523.802-2.46Zm0 0"/><path style="stroke:none;fill-rule:nonzero;fill:#fff;fill-opacity:1" d="m30.15 9.338-2.1-1.523h2.595Zm0 0"/><path style="stroke:none;fill-rule:nonzero;fill:#fff;fill-opacity:1" d="m29.595 8.58.802-2.468.802 2.468Zm0 0"/><path style="stroke:none;fill-rule:nonzero;fill:#fff;fill-opacity:1" d="M30.15 7.815h2.587l-2.093 1.523Zm0 0"/><path style="stroke:none;fill-rule:nonzero;fill:#fff;fill-opacity:1" d="m31.05 8.107.802 2.46-2.093-1.523Zm10.08.938-2.1 1.523.802-2.46Zm0 0"/><path style="stroke:none;fill-rule:nonzero;fill:#fff;fill-opacity:1" d="m40.238 9.338-2.1-1.523h2.587Zm0 0"/><path style="stroke:none;fill-rule:nonzero;fill:#fff;fill-opacity:1" d="m39.683 8.58.802-2.468.802 2.468Zm0 0"/><path style="stroke:none;fill-rule:nonzero;fill:#fff;fill-opacity:1" d="M40.238 7.815h2.587l-2.1 1.523Zm0 0"/><path style="stroke:none;fill-rule:nonzero;fill:#fff;fill-opacity:1" d="m41.13 8.107.802 2.46-2.1-1.523Zm10.08.938-2.093 1.523.802-2.46Zm0 0"/><path style="stroke:none;fill-rule:nonzero;fill:#fff;fill-opacity:1" d="m50.31 9.338-2.1-1.523h2.595Zm0 0"/><path style="stroke:none;fill-rule:nonzero;fill:#fff;fill-opacity:1" d="m49.755 8.58.802-2.468.802 2.468Zm0 0"/><path style="stroke:none;fill-rule:nonzero;fill:#fff;fill-opacity:1" d="M50.31 7.815h2.587l-2.093 1.523Zm0 0"/><path style="stroke:none;fill-rule:nonzero;fill:#fff;fill-opacity:1" d="m51.21 8.107.802 2.46-2.093-1.523ZM5.85 13.365l-2.1 1.523.802-2.46Zm0 0"/><path style="stroke:none;fill-rule:nonzero;fill:#fff;fill-opacity:1" d="m4.95 13.657-2.1-1.523h2.603Zm0 0"/><path style="stroke:none;fill-rule:nonzero;fill:#fff;fill-opacity:1" d="m4.395 12.9.802-2.468.802 2.468Zm0 0"/><path style="stroke:none;fill-rule:nonzero;fill:#fff;fill-opacity:1" d="M4.95 12.135h2.587l-2.085 1.523Zm0 0"/><path style="stroke:none;fill-rule:nonzero;fill:#fff;fill-opacity:1" d="m5.85 12.428.802 2.46-2.1-1.523Zm10.08.938-2.093 1.523.802-2.46Zm0 0"/><path style="stroke:none;fill-rule:nonzero;fill:#fff;fill-opacity:1" d="m15.03 13.657-2.093-1.523h2.587Zm0 0"/><path style="stroke:none;fill-rule:nonzero;fill:#fff;fill-opacity:1" d="m14.482 12.9.802-2.468.802 2.468Zm0 0"/><path style="stroke:none;fill-rule:nonzero;fill:#fff;fill-opacity:1" d="M15.03 12.135h2.595l-2.1 1.523Zm0 0"/><path style="stroke:none;fill-rule:nonzero;fill:#fff;fill-opacity:1" d="m15.923 12.428.802 2.46-2.093-1.523Zm10.08.938-2.1 1.523.802-2.46Zm0 0"/><path style="stroke:none;fill-rule:nonzero;fill:#fff;fill-opacity:1" d="m25.11 13.657-2.1-1.523h2.587Zm0 0"/><path style="stroke:none;fill-rule:nonzero;fill:#fff;fill-opacity:1" d="m24.563 12.9.802-2.468.802 2.468Zm0 0"/><path style="stroke:none;fill-rule:nonzero;fill:#fff;fill-opacity:1" d="M25.11 12.135h2.587l-2.1 1.523Zm0 0"/><path style="stroke:none;fill-rule:nonzero;fill:#fff;fill-opacity:1" d="m26.01 12.428.802 2.46-2.1-1.523Zm10.08.938-2.093 1.523.802-2.46Zm0 0"/><path style="stroke:none;fill-rule:nonzero;fill:#fff;fill-opacity:1" d="m35.19 13.657-2.093-1.523h2.587Zm0 0"/><path style="stroke:none;fill-rule:nonzero;fill:#fff;fill-opacity:1" d="m34.642 12.9.802-2.468.802 2.468Zm0 0"/><path style="stroke:none;fill-rule:nonzero;fill:#fff;fill-opacity:1" d="M35.19 12.135h2.595l-2.1 1.523Zm0 0"/><path style="stroke:none;fill-rule:nonzero;fill:#fff;fill-opacity:1" d="m36.082 12.428.802 2.46-2.093-1.523Zm10.08.938-2.1 1.523.802-2.46Zm0 0"/><path style="stroke:none;fill-rule:nonzero;fill:#fff;fill-opacity:1" d="m45.27 13.657-2.1-1.523h2.587Zm0 0"/><path style="stroke:none;fill-rule:nonzero;fill:#fff;fill-opacity:1" d="m44.723 12.9.802-2.468.802 2.468Zm0 0"/><path style="stroke:none;fill-rule:nonzero;fill:#fff;fill-opacity:1" d="M45.27 12.135h2.587l-2.1 1.523Zm0 0"/><path style="stroke:none;fill-rule:nonzero;fill:#fff;fill-opacity:1" d="m46.17 12.428.802 2.46-2.1-1.523Zm10.08.938-2.093 1.523.802-2.46Zm0 0"/><path style="stroke:none;fill-rule:nonzero;fill:#fff;fill-opacity:1" d="m55.35 13.657-2.093-1.523h2.587Zm0 0"/><path style="stroke:none;fill-rule:nonzero;fill:#fff;fill-opacity:1" d="m54.803 12.9.802-2.468.802 2.468Zm0 0"/><path style="stroke:none;fill-rule:nonzero;fill:#fff;fill-opacity:1" d="M55.35 12.135h2.595l-2.1 1.523Zm0 0"/><path style="stroke:none;fill-rule:nonzero;fill:#fff;fill-opacity:1" d="m56.242 12.428.802 2.46-2.093-1.523Zm-45.36 5.257-2.093 1.523.802-2.468Zm0 0"/><path style="stroke:none;fill-rule:nonzero;fill:#fff;fill-opacity:1" d="m9.99 17.977-2.093-1.523h2.587Zm0 0"/><path style="stroke:none;fill-rule:nonzero;fill:#fff;fill-opacity:1" d="m9.435 17.22.802-2.468.802 2.468Zm0 0"/><path style="stroke:none;fill-rule:nonzero;fill:#fff;fill-opacity:1" d="M9.99 16.455h2.587l-2.093 1.523Zm0 0"/><path style="stroke:none;fill-rule:nonzero;fill:#fff;fill-opacity:1" d="m10.89 16.748.802 2.468-2.093-1.523Zm10.08.945-2.1 1.515.802-2.468Zm0 0"/><path style="stroke:none;fill-rule:nonzero;fill:#fff;fill-opacity:1" d="m20.078 17.977-2.1-1.523h2.587Zm0 0"/><path style="stroke:none;fill-rule:nonzero;fill:#fff;fill-opacity:1" d="m19.523 17.22.802-2.468.802 2.468Zm0 0"/><path style="stroke:none;fill-rule:nonzero;fill:#fff;fill-opacity:1" d="M20.078 16.455h2.587l-2.1 1.523Zm0 0"/><path style="stroke:none;fill-rule:nonzero;fill:#fff;fill-opacity:1" d="m20.97 16.748.802 2.468-2.1-1.523Zm10.08.945-2.093 1.523.802-2.468Zm0 0"/><path style="stroke:none;fill-rule:nonzero;fill:#fff;fill-opacity:1" d="m30.15 17.977-2.1-1.523h2.595Zm0 0"/><path style="stroke:none;fill-rule:nonzero;fill:#fff;fill-opacity:1" d="m29.595 17.22.802-2.468.802 2.468Zm0 0"/><path style="stroke:none;fill-rule:nonzero;fill:#fff;fill-opacity:1" d="M30.15 16.455h2.587l-2.093 1.523Zm0 0"/><path style="stroke:none;fill-rule:nonzero;fill:#fff;fill-opacity:1" d="m31.05 16.748.802 2.468-2.093-1.523Zm10.08.945-2.1 1.515.802-2.468Zm0 0"/><path style="stroke:none;fill-rule:nonzero;fill:#fff;fill-opacity:1" d="m40.238 17.977-2.1-1.523h2.587Zm0 0"/><path style="stroke:none;fill-rule:nonzero;fill:#fff;fill-opacity:1" d="m39.683 17.22.802-2.468.802 2.468Zm0 0"/><path style="stroke:none;fill-rule:nonzero;fill:#fff;fill-opacity:1" d="M40.238 16.455h2.587l-2.1 1.523Zm0 0"/><path style="stroke:none;fill-rule:nonzero;fill:#fff;fill-opacity:1" d="m41.13 16.748.802 2.468-2.1-1.523Zm10.08.945-2.093 1.523.802-2.468Zm0 0"/><path style="stroke:none;fill-rule:nonzero;fill:#fff;fill-opacity:1" d="m50.31 17.977-2.1-1.523h2.595Zm0 0"/><path style="stroke:none;fill-rule:nonzero;fill:#fff;fill-opacity:1" d="m49.755 17.22.802-2.468.802 2.468Zm0 0"/><path style="stroke:none;fill-rule:nonzero;fill:#fff;fill-opacity:1" d="M50.31 16.455h2.587l-2.093 1.523Zm0 0"/><path style="stroke:none;fill-rule:nonzero;fill:#fff;fill-opacity:1" d="m51.21 16.748.802 2.468-2.093-1.523ZM5.85 22.005l-2.1 1.523.802-2.468Zm0 0"/><path style="stroke:none;fill-rule:nonzero;fill:#fff;fill-opacity:1" d="m4.95 22.297-2.1-1.522h2.603Zm0 0"/><path style="stroke:none;fill-rule:nonzero;fill:#fff;fill-opacity:1" d="m4.395 21.54.802-2.468.802 2.468Zm0 0"/><path style="stroke:none;fill-rule:nonzero;fill:#fff;fill-opacity:1" d="M4.95 20.775h2.587l-2.093 1.523Zm0 0"/><path style="stroke:none;fill-rule:nonzero;fill:#fff;fill-opacity:1" d="m5.85 21.068.802 2.468-2.1-1.523Zm10.08.945-2.093 1.523.802-2.468Zm0 0"/><path style="stroke:none;fill-rule:nonzero;fill:#fff;fill-opacity:1" d="m15.03 22.297-2.093-1.523h2.587Zm0 0"/><path style="stroke:none;fill-rule:nonzero;fill:#fff;fill-opacity:1" d="m14.482 21.54.802-2.468.802 2.468Zm0 0"/><path style="stroke:none;fill-rule:nonzero;fill:#fff;fill-opacity:1" d="M15.03 20.775h2.595l-2.1 1.523Zm0 0"/><path style="stroke:none;fill-rule:nonzero;fill:#fff;fill-opacity:1" d="m15.923 21.068.802 2.468-2.093-1.523Zm10.08.945-2.093 1.515.802-2.468Zm0 0"/><path style="stroke:none;fill-rule:nonzero;fill:#fff;fill-opacity:1" d="m25.11 22.297-2.1-1.523h2.587Zm0 0"/><path style="stroke:none;fill-rule:nonzero;fill:#fff;fill-opacity:1" d="m24.563 21.54.802-2.468.802 2.468Zm0 0"/><path style="stroke:none;fill-rule:nonzero;fill:#fff;fill-opacity:1" d="M25.11 20.775h2.587l-2.1 1.523Zm0 0"/><path style="stroke:none;fill-rule:nonzero;fill:#fff;fill-opacity:1" d="m26.01 21.068.802 2.468-2.1-1.523Zm10.08.945-2.093 1.523.802-2.468Zm0 0"/><path style="stroke:none;fill-rule:nonzero;fill:#fff;fill-opacity:1" d="m35.19 22.297-2.093-1.523h2.587Zm0 0"/><path style="stroke:none;fill-rule:nonzero;fill:#fff;fill-opacity:1" d="m34.642 21.54.802-2.468.802 2.468Zm0 0"/><path style="stroke:none;fill-rule:nonzero;fill:#fff;fill-opacity:1" d="M35.19 20.775h2.595l-2.1 1.523Zm0 0"/><path style="stroke:none;fill-rule:nonzero;fill:#fff;fill-opacity:1" d="m36.082 21.068.802 2.468-2.093-1.523Zm10.08.945-2.093 1.515.802-2.468Zm0 0"/><path style="stroke:none;fill-rule:nonzero;fill:#fff;fill-opacity:1" d="m45.27 22.297-2.1-1.523h2.587Zm0 0"/><path style="stroke:none;fill-rule:nonzero;fill:#fff;fill-opacity:1" d="m44.723 21.54.802-2.468.802 2.468Zm0 0"/><path style="stroke:none;fill-rule:nonzero;fill:#fff;fill-opacity:1" d="M45.27 20.775h2.587l-2.1 1.523Zm0 0"/><path style="stroke:none;fill-rule:nonzero;fill:#fff;fill-opacity:1" d="m46.17 21.068.802 2.468-2.1-1.523Zm10.08.945-2.093 1.523.802-2.468Zm0 0"/><path style="stroke:none;fill-rule:nonzero;fill:#fff;fill-opacity:1" d="m55.35 22.297-2.093-1.523h2.587Zm0 0"/><path style="stroke:none;fill-rule:nonzero;fill:#fff;fill-opacity:1" d="m54.803 21.54.802-2.468.802 2.468Zm0 0"/><path style="stroke:none;fill-rule:nonzero;fill:#fff;fill-opacity:1" d="M55.35 20.775h2.595l-2.1 1.523Zm0 0"/><path style="stroke:none;fill-rule:nonzero;fill:#fff;fill-opacity:1" d="m56.242 21.068.802 2.468-2.093-1.523Zm-45.36 5.265-2.093 1.523.802-2.468Zm0 0"/><path style="stroke:none;fill-rule:nonzero;fill:#fff;fill-opacity:1" d="m9.99 26.617-2.093-1.523h2.587Zm0 0"/><path style="stroke:none;fill-rule:nonzero;fill:#fff;fill-opacity:1" d="m9.435 25.86.802-2.468.802 2.468Zm0 0"/><path style="stroke:none;fill-rule:nonzero;fill:#fff;fill-opacity:1" d="M9.99 25.095h2.587l-2.093 1.523Zm0 0"/><path style="stroke:none;fill-rule:nonzero;fill:#fff;fill-opacity:1" d="m10.89 25.387.802 2.468-2.093-1.523Zm10.08.938-2.1 1.523.802-2.468Zm0 0"/><path style="stroke:none;fill-rule:nonzero;fill:#fff;fill-opacity:1" d="m20.078 26.617-2.1-1.523h2.587Zm0 0"/><path style="stroke:none;fill-rule:nonzero;fill:#fff;fill-opacity:1" d="m19.523 25.86.802-2.468.802 2.468Zm0 0"/><path style="stroke:none;fill-rule:nonzero;fill:#fff;fill-opacity:1" d="M20.078 25.095h2.587l-2.1 1.523Zm0 0"/><path style="stroke:none;fill-rule:nonzero;fill:#fff;fill-opacity:1" d="m20.97 25.387.802 2.468-2.1-1.523Zm10.08.938-2.093 1.523.802-2.468Zm0 0"/><path style="stroke:none;fill-rule:nonzero;fill:#fff;fill-opacity:1" d="m30.15 26.617-2.1-1.523h2.595Zm0 0"/><path style="stroke:none;fill-rule:nonzero;fill:#fff;fill-opacity:1" d="m29.595 25.86.802-2.468.802 2.468Zm0 0"/><path style="stroke:none;fill-rule:nonzero;fill:#fff;fill-opacity:1" d="M30.15 25.095h2.587l-2.093 1.523Zm0 0"/><path style="stroke:none;fill-rule:nonzero;fill:#fff;fill-opacity:1" d="m31.05 25.387.802 2.468-2.093-1.523Zm10.08.938-2.1 1.523.802-2.468Zm0 0"/><path style="stroke:none;fill-rule:nonzero;fill:#fff;fill-opacity:1" d="m40.238 26.617-2.1-1.523h2.587Zm0 0"/><path style="stroke:none;fill-rule:nonzero;fill:#fff;fill-opacity:1" d="m39.683 25.86.802-2.468.802 2.468Zm0 0"/><path style="stroke:none;fill-rule:nonzero;fill:#fff;fill-opacity:1" d="M40.238 25.095h2.587l-2.1 1.523Zm0 0"/><path style="stroke:none;fill-rule:nonzero;fill:#fff;fill-opacity:1" d="m41.13 25.387.802 2.468-2.1-1.523Zm10.08.938-2.093 1.523.802-2.468Zm0 0"/><path style="stroke:none;fill-rule:nonzero;fill:#fff;fill-opacity:1" d="m50.31 26.617-2.1-1.523h2.595Zm0 0"/><path style="stroke:none;fill-rule:nonzero;fill:#fff;fill-opacity:1" d="m49.755 25.86.802-2.468.802 2.468Zm0 0"/><path style="stroke:none;fill-rule:nonzero;fill:#fff;fill-opacity:1" d="M50.31 25.095h2.587l-2.093 1.523Zm0 0"/><path style="stroke:none;fill-rule:nonzero;fill:#fff;fill-opacity:1" d="m51.21 25.387.802 2.468-2.093-1.523ZM5.85 30.645l-2.1 1.53.802-2.468Zm0 0"/><path style="stroke:none;fill-rule:nonzero;fill:#fff;fill-opacity:1" d="m4.95 30.938-2.1-1.523h2.603Zm0 0"/><path style="stroke:none;fill-rule:nonzero;fill:#fff;fill-opacity:1" d="m4.395 30.18.802-2.468.802 2.468Zm0 0"/><path style="stroke:none;fill-rule:nonzero;fill:#fff;fill-opacity:1" d="M4.95 29.415h2.587l-2.093 1.523Zm0 0"/><path style="stroke:none;fill-rule:nonzero;fill:#fff;fill-opacity:1" d="m5.85 29.707.802 2.468-2.1-1.523Zm10.08.938-2.093 1.523.802-2.468Zm0 0"/><path style="stroke:none;fill-rule:nonzero;fill:#fff;fill-opacity:1" d="m15.03 30.938-2.093-1.523h2.587Zm0 0"/><path style="stroke:none;fill-rule:nonzero;fill:#fff;fill-opacity:1" d="m14.482 30.18.802-2.468.802 2.468Zm0 0"/><path style="stroke:none;fill-rule:nonzero;fill:#fff;fill-opacity:1" d="M15.03 29.415h2.595l-2.1 1.523Zm0 0"/><path style="stroke:none;fill-rule:nonzero;fill:#fff;fill-opacity:1" d="m15.923 29.707.802 2.468-2.093-1.523Zm10.08.938-2.1 1.523.802-2.468Zm0 0"/><path style="stroke:none;fill-rule:nonzero;fill:#fff;fill-opacity:1" d="m25.11 30.938-2.1-1.523h2.587Zm0 0"/><path style="stroke:none;fill-rule:nonzero;fill:#fff;fill-opacity:1" d="m24.563 30.18.802-2.468.802 2.468Zm0 0"/><path style="stroke:none;fill-rule:nonzero;fill:#fff;fill-opacity:1" d="M25.11 29.415h2.587l-2.1 1.523Zm0 0"/><path style="stroke:none;fill-rule:nonzero;fill:#fff;fill-opacity:1" d="m26.01 29.707.802 2.468-2.1-1.523Zm10.08.938-2.093 1.523.802-2.468Zm0 0"/><path style="stroke:none;fill-rule:nonzero;fill:#fff;fill-opacity:1" d="m35.19 30.938-2.093-1.523h2.587Zm0 0"/><path style="stroke:none;fill-rule:nonzero;fill:#fff;fill-opacity:1" d="m34.642 30.18.802-2.468.802 2.468Zm0 0"/><path style="stroke:none;fill-rule:nonzero;fill:#fff;fill-opacity:1" d="M35.19 29.415h2.595l-2.1 1.523Zm0 0"/><path style="stroke:none;fill-rule:nonzero;fill:#fff;fill-opacity:1" d="m36.082 29.707.802 2.468-2.093-1.523Zm10.08.938-2.1 1.523.802-2.468Zm0 0"/><path style="stroke:none;fill-rule:nonzero;fill:#fff;fill-opacity:1" d="m45.27 30.938-2.1-1.523h2.587Zm0 0"/><path style="stroke:none;fill-rule:nonzero;fill:#fff;fill-opacity:1" d="m44.723 30.18.802-2.468.802 2.468Zm0 0"/><path style="stroke:none;fill-rule:nonzero;fill:#fff;fill-opacity:1" d="M45.27 29.415h2.587l-2.1 1.523Zm0 0"/><path style="stroke:none;fill-rule:nonzero;fill:#fff;fill-opacity:1" d="m46.17 29.707.802 2.468-2.1-1.523Zm10.08.938-2.093 1.523.802-2.468Zm0 0"/><path style="stroke:none;fill-rule:nonzero;fill:#fff;fill-opacity:1" d="m55.35 30.938-2.093-1.523h2.587Zm0 0"/><path style="stroke:none;fill-rule:nonzero;fill:#fff;fill-opacity:1" d="m54.803 30.18.802-2.468.802 2.468Zm0 0"/><path style="stroke:none;fill-rule:nonzero;fill:#fff;fill-opacity:1" d="M55.35 29.415h2.595l-2.1 1.523Zm0 0"/><path style="stroke:none;fill-rule:nonzero;fill:#fff;fill-opacity:1" d="m56.242 29.707.802 2.468-2.093-1.523Zm-45.36 5.265-2.093 1.523.802-2.468Zm0 0"/><path style="stroke:none;fill-rule:nonzero;fill:#fff;fill-opacity:1" d="m9.99 35.265-2.093-1.523h2.587Zm0 0"/><path style="stroke:none;fill-rule:nonzero;fill:#fff;fill-opacity:1" d="m9.435 34.5.802-2.468.802 2.468Zm0 0"/><path style="stroke:none;fill-rule:nonzero;fill:#fff;fill-opacity:1" d="M9.99 33.735h2.587l-2.093 1.523Zm0 0"/><path style="stroke:none;fill-rule:nonzero;fill:#fff;fill-opacity:1" d="m10.89 34.027.802 2.468-2.093-1.523Zm10.08.945-2.1 1.523.802-2.468Zm0 0"/><path style="stroke:none;fill-rule:nonzero;fill:#fff;fill-opacity:1" d="m20.078 35.265-2.1-1.523h2.587Zm0 0"/><path style="stroke:none;fill-rule:nonzero;fill:#fff;fill-opacity:1" d="m19.523 34.5.802-2.468.802 2.468Zm0 0"/><path style="stroke:none;fill-rule:nonzero;fill:#fff;fill-opacity:1" d="M20.078 33.735h2.587l-2.1 1.523Zm0 0"/><path style="stroke:none;fill-rule:nonzero;fill:#fff;fill-opacity:1" d="m20.97 34.027.802 2.468-2.1-1.523Zm10.08.945-2.093 1.523.802-2.468Zm0 0"/><path style="stroke:none;fill-rule:nonzero;fill:#fff;fill-opacity:1" d="m30.15 35.265-2.1-1.523h2.595Zm0 0"/><path style="stroke:none;fill-rule:nonzero;fill:#fff;fill-opacity:1" d="m29.595 34.5.802-2.468.802 2.468Zm0 0"/><path style="stroke:none;fill-rule:nonzero;fill:#fff;fill-opacity:1" d="M30.15 33.735h2.587l-2.093 1.523Zm0 0"/><path style="stroke:none;fill-rule:nonzero;fill:#fff;fill-opacity:1" d="m31.05 34.027.802 2.468-2.093-1.523Zm10.08.945-2.1 1.523.802-2.468Zm0 0"/><path style="stroke:none;fill-rule:nonzero;fill:#fff;fill-opacity:1" d="m40.238 35.265-2.1-1.523h2.587Zm0 0"/><path style="stroke:none;fill-rule:nonzero;fill:#fff;fill-opacity:1" d="m39.683 34.5.802-2.468.802 2.468Zm0 0"/><path style="stroke:none;fill-rule:nonzero;fill:#fff;fill-opacity:1" d="M40.238 33.735h2.587l-2.1 1.523Zm0 0"/><path style="stroke:none;fill-rule:nonzero;fill:#fff;fill-opacity:1" d="m41.13 34.027.802 2.468-2.1-1.523Zm10.08.945-2.093 1.523.802-2.468Zm0 0"/><path style="stroke:none;fill-rule:nonzero;fill:#fff;fill-opacity:1" d="m50.31 35.265-2.1-1.523h2.595Zm0 0"/><path style="stroke:none;fill-rule:nonzero;fill:#fff;fill-opacity:1" d="m49.755 34.5.802-2.468.802 2.468Zm0 0"/><path style="stroke:none;fill-rule:nonzero;fill:#fff;fill-opacity:1" d="M50.31 33.735h2.587l-2.093 1.523Zm0 0"/><path style="stroke:none;fill-rule:nonzero;fill:#fff;fill-opacity:1" d="m51.21 34.027.802 2.468-2.093-1.523ZM5.85 39.292l-2.1 1.523.802-2.468Zm0 0"/><path style="stroke:none;fill-rule:nonzero;fill:#fff;fill-opacity:1" d="m4.95 39.578-2.1-1.523h2.603Zm0 0"/><path style="stroke:none;fill-rule:nonzero;fill:#fff;fill-opacity:1" d="m4.395 38.82.802-2.468.802 2.468Zm0 0"/><path style="stroke:none;fill-rule:nonzero;fill:#fff;fill-opacity:1" d="M4.95 38.063h2.587l-2.093 1.523Zm0 0"/><path style="stroke:none;fill-rule:nonzero;fill:#fff;fill-opacity:1" d="m5.85 38.348.802 2.468-2.1-1.523Zm10.08.945-2.093 1.523.802-2.468Zm0 0"/><path style="stroke:none;fill-rule:nonzero;fill:#fff;fill-opacity:1" d="m15.03 39.578-2.093-1.523h2.587Zm0 0"/><path style="stroke:none;fill-rule:nonzero;fill:#fff;fill-opacity:1" d="m14.482 38.82.802-2.468.802 2.468Zm0 0"/><path style="stroke:none;fill-rule:nonzero;fill:#fff;fill-opacity:1" d="M15.03 38.063h2.595l-2.1 1.523Zm0 0"/><path style="stroke:none;fill-rule:nonzero;fill:#fff;fill-opacity:1" d="m15.923 38.348.802 2.468-2.093-1.523Zm10.08.945-2.1 1.523.802-2.468Zm0 0"/><path style="stroke:none;fill-rule:nonzero;fill:#fff;fill-opacity:1" d="m25.11 39.578-2.1-1.523h2.587Zm0 0"/><path style="stroke:none;fill-rule:nonzero;fill:#fff;fill-opacity:1" d="m24.563 38.82.802-2.468.802 2.468Zm0 0"/><path style="stroke:none;fill-rule:nonzero;fill:#fff;fill-opacity:1" d="M25.11 38.063h2.587l-2.1 1.523Zm0 0"/><path style="stroke:none;fill-rule:nonzero;fill:#fff;fill-opacity:1" d="m26.01 38.348.802 2.468-2.1-1.523Zm10.08.945-2.093 1.523.802-2.468Zm0 0"/><path style="stroke:none;fill-rule:nonzero;fill:#fff;fill-opacity:1" d="m35.19 39.578-2.093-1.523h2.587Zm0 0"/><path style="stroke:none;fill-rule:nonzero;fill:#fff;fill-opacity:1" d="m34.642 38.82.802-2.468.802 2.468Zm0 0"/><path style="stroke:none;fill-rule:nonzero;fill:#fff;fill-opacity:1" d="M35.19 38.063h2.595l-2.1 1.523Zm0 0"/><path style="stroke:none;fill-rule:nonzero;fill:#fff;fill-opacity:1" d="m36.082 38.348.802 2.468-2.093-1.523Zm10.08.945-2.1 1.523.802-2.468Zm0 0"/><path style="stroke:none;fill-rule:nonzero;fill:#fff;fill-opacity:1" d="m45.27 39.578-2.1-1.523h2.587Zm0 0"/><path style="stroke:none;fill-rule:nonzero;fill:#fff;fill-opacity:1" d="m44.723 38.82.802-2.468.802 2.468Zm0 0"/><path style="stroke:none;fill-rule:nonzero;fill:#fff;fill-opacity:1" d="M45.27 38.063h2.587l-2.1 1.523Zm0 0"/><path style="stroke:none;fill-rule:nonzero;fill:#fff;fill-opacity:1" d="m46.17 38.348.802 2.468-2.1-1.523Zm10.08.945-2.093 1.523.802-2.468Zm0 0"/><path style="stroke:none;fill-rule:nonzero;fill:#fff;fill-opacity:1" d="m55.35 39.578-2.093-1.523h2.587Zm0 0"/><path style="stroke:none;fill-rule:nonzero;fill:#fff;fill-opacity:1" d="m54.803 38.82.802-2.468.802 2.468Zm0 0"/><path style="stroke:none;fill-rule:nonzero;fill:#fff;fill-opacity:1" d="M55.35 38.063h2.595l-2.1 1.523Zm0 0"/><path style="stroke:none;fill-rule:nonzero;fill:#fff;fill-opacity:1" d="m56.242 38.348.802 2.468-2.093-1.523Zm0 0"/><g clip-path="url(#a)"><path style="fill:#00247d;fill-opacity:1;stroke:none" d="M0 0h159.998v80.002H0z"/><path style="fill-rule:nonzero;fill:#000;fill-opacity:1;stroke-width:6;stroke-linecap:butt;stroke-linejoin:miter;stroke:#fff;stroke-opacity:1;stroke-miterlimit:4" d="m0 0 60 30m0-30L0 30" transform="scale(2.66667)"/></g><g clip-path="url(#b)"><g clip-path="url(#c)"><g clip-path="url(#d)"><path style="fill:none;stroke-width:4;stroke-linecap:butt;stroke-linejoin:miter;stroke:#cf142b;stroke-opacity:1;stroke-miterlimit:4" d="m0 30 30-15 30 15" transform="scale(2.66667)"/></g></g></g><g clip-path="url(#e)"><path style="fill-rule:nonzero;fill:#000;fill-opacity:1;stroke-width:10;stroke-linecap:butt;stroke-linejoin:miter;stroke:#fff;stroke-opacity:1;stroke-miterlimit:4" d="M30 0v30M0 15h60" transform="scale(2.66667)"/><path style="fill-rule:nonzero;fill:#000;fill-opacity:1;stroke-width:6;stroke-linecap:butt;stroke-linejoin:miter;stroke:#cf142b;stroke-opacity:1;stroke-miterlimit:4" d="M30 0v30M0 15h60" transform="scale(2.66667)"/></g><path style="stroke:none;fill-rule:nonzero;fill:red;fill-opacity:1" d="m80.002 15-4.2 7.83c-.473.855-1.327.772-2.182.3l-3.038-1.575 2.265 12.03c.473 2.197-1.057 2.197-1.807 1.245l-5.302-5.94-.863 3.015c-.097.397-.532.81-1.193.713l-6.705-1.41 1.762 6.405c.375 1.425.675 2.018-.382 2.393l-2.4 1.125 11.55 9.382a1.5 1.5 0 0 1 .525 1.567l-1.013 3.315c3.975-.458 7.537-1.147 11.512-1.567.352-.037.938.54.938.945l-.525 12.15h1.935l-.307-12.127c-.007-.405.532-1.013.885-.975 3.975.427 7.537 1.117 11.512 1.567l-1.013-3.315a1.5 1.5 0 0 1 .525-1.567l11.55-9.382-2.393-1.125c-1.057-.375-.758-.968-.382-2.393l1.762-6.405-6.705 1.41a1.03 1.03 0 0 1-1.193-.713l-.863-3.015-5.302 5.94c-.758.953-2.288.953-1.807-1.245l2.265-12.03-3.038 1.575c-.848.473-1.703.555-2.182-.3"/></svg>